<?xml version="1.0" encoding="UTF-8" standalone="no"?>
<svg
   xmlns:dc="http://purl.org/dc/elements/1.1/"
   xmlns:cc="http://creativecommons.org/ns#"
   xmlns:rdf="http://www.w3.org/1999/02/22-rdf-syntax-ns#"
   xmlns:svg="http://www.w3.org/2000/svg"
   xmlns="http://www.w3.org/2000/svg"
   viewBox="0 0 401.73334 86.933334"
   height="86.933334"
   width="401.73334"
   xml:space="preserve"
   id="svg2"
   version="1.1"><metadata
     id="metadata8"><rdf:RDF><cc:Work
         rdf:about=""><dc:format>image/svg+xml</dc:format><dc:type
           rdf:resource="http://purl.org/dc/dcmitype/StillImage" /></cc:Work></rdf:RDF></metadata><defs
     id="defs6" /><g
     transform="matrix(1.3333333,0,0,-1.3333333,0,86.933333)"
     id="g10"><g
       transform="scale(0.1)"
       id="g12"><path
         id="path14"
         style="fill:#ed1c24;fill-opacity:1;fill-rule:nonzero;stroke:none"
         d="m 875.586,181.215 h 40.769 l 15.735,-79.352 20.383,79.352 h 40.672 l 22.555,-79.352 13.65,79.352 h 40.58 L 1041.18,39.1563 H 999.094 L 973.547,128.59 950.461,39.1563 H 908.352 L 875.586,181.215 v 0" /><path
         id="path16"
         style="fill:#ed1c24;fill-opacity:1;fill-rule:nonzero;stroke:none"
         d="m 1150.09,99.707 c -0.88,7.652 -2.97,13.106 -6.24,16.387 -3.31,3.297 -7.61,4.953 -12.9,4.953 -6.16,0 -11.02,-2.516 -14.64,-7.469 -2.28,-3.109 -3.71,-7.715 -4.24,-13.871 h 38.02 z m 39.46,-18.8711 h -77.34 c 0.76,-6.3554 2.51,-11.0546 5.21,-14.164 3.78,-4.461 8.68,-6.6875 14.68,-6.6875 3.78,0 7.39,0.9687 10.76,2.914 2.09,1.2344 4.3,3.375 6.64,6.4883 l 38.08,-3.5781 c -5.69,-10.3477 -12.59,-17.7617 -20.73,-22.25 -8.18,-4.4727 -19.92,-6.7227 -35.3,-6.7227 -13.33,0 -23.84,1.918 -31.55,5.7579 -7.7,3.8359 -14.11,9.957 -19.25,18.3359 -5.12,8.3633 -7.76,18.1797 -7.91,29.4844 -0.21,16.0859 4.66,29.1059 14.58,39.0349 9.98,9.953 23.83,14.946 41.59,14.946 14.41,0 25.82,-2.239 34.2,-6.715 8.39,-4.434 14.87,-10.903 19.32,-19.352 4.47,-8.453 6.79,-19.4647 6.96,-33.035 l 0.06,-4.4571 v 0" /><path
         id="path18"
         style="fill:#ed1c24;fill-opacity:1;fill-rule:nonzero;stroke:none"
         d="m 1339.2,90.8789 c -0.11,8.1133 -1.83,14.1251 -5.24,18.0981 -3.38,3.968 -7.65,5.957 -12.77,5.957 -4.49,0 -8.22,-1.922 -11.21,-5.719 -3,-3.817 -4.44,-10.1955 -4.32,-19.1955 0.11,-8.3945 1.77,-14.5468 4.94,-18.4531 3.19,-3.8984 7.1,-5.8476 11.69,-5.8476 4.95,0 9.04,1.9492 12.25,5.8867 3.26,3.9765 4.78,10.3828 4.66,19.2734 z m 37.53,90.3361 1.86,-142.0587 h -36.11 l -0.2,15.2187 c -4.99,-6.4609 -9.54,-10.8164 -13.7,-13.1055 -5.51,-2.9336 -11.67,-4.4336 -18.5,-4.4336 -13.72,0 -24.27,5.336 -31.66,15.9766 -7.36,10.6563 -11.14,23.6133 -11.36,38.8633 -0.2,17.0742 3.6,30.0972 11.49,39.1252 7.9,9.066 17.98,13.594 30.29,13.594 6,0 11.46,-1.059 16.41,-3.11 4.92,-2.082 9.29,-5.152 13.16,-9.293 l -0.64,49.223 h 38.96 v 0" /><path
         id="path20"
         style="fill:#ed1c24;fill-opacity:1;fill-rule:nonzero;stroke:none"
         d="m 1473.84,99.707 c -0.89,7.652 -2.97,13.106 -6.25,16.387 -3.3,3.297 -7.6,4.953 -12.9,4.953 -6.15,0 -11,-2.516 -14.63,-7.469 -2.29,-3.109 -3.72,-7.715 -4.25,-13.871 h 38.03 z m 39.45,-18.8711 h -77.33 c 0.77,-6.3554 2.52,-11.0546 5.2,-14.164 3.78,-4.461 8.69,-6.6875 14.68,-6.6875 3.78,0 7.41,0.9687 10.77,2.914 2.09,1.2344 4.29,3.375 6.64,6.4883 l 38.07,-3.5781 c -5.69,-10.3477 -12.57,-17.7617 -20.73,-22.25 -8.18,-4.4727 -19.92,-6.7227 -35.28,-6.7227 -13.35,0 -23.85,1.918 -31.56,5.7579 -7.7,3.8359 -14.1,9.957 -19.24,18.3359 -5.13,8.3633 -7.78,18.1797 -7.92,29.4844 -0.21,16.0859 4.66,29.1059 14.59,39.0349 9.96,9.953 23.82,14.946 41.58,14.946 14.41,0 25.81,-2.239 34.19,-6.715 8.41,-4.434 14.87,-10.903 19.32,-19.352 4.47,-8.453 6.8,-19.4647 6.97,-33.035 l 0.05,-4.4571 v 0" /><path
         id="path22"
         style="fill:#ed1c24;fill-opacity:1;fill-rule:nonzero;stroke:none"
         d="m 1513.76,142.051 h 40.19 l 20.41,-65.1916 19.32,65.1916 h 38.97 L 1591.22,39.1563 h -34.21 l -43.25,102.8947 v 0" /><path
         id="path24"
         style="fill:#ed1c24;fill-opacity:1;fill-rule:nonzero;stroke:none"
         d="m 1711.88,99.707 c -0.86,7.652 -2.95,13.106 -6.24,16.387 -3.31,3.297 -7.59,4.953 -12.89,4.953 -6.17,0 -11.01,-2.516 -14.63,-7.469 -2.29,-3.109 -3.72,-7.715 -4.24,-13.871 h 38 z m 39.48,-18.8711 H 1674 c 0.78,-6.3554 2.52,-11.0546 5.22,-14.164 3.79,-4.461 8.69,-6.6875 14.67,-6.6875 3.79,0 7.41,0.9687 10.77,2.914 2.1,1.2344 4.3,3.375 6.65,6.4883 l 38.07,-3.5781 c -5.7,-10.3477 -12.58,-17.7617 -20.74,-22.25 -8.17,-4.4727 -19.9,-6.7227 -35.28,-6.7227 -13.34,0 -23.85,1.918 -31.55,5.7579 -7.71,3.8359 -14.11,9.957 -19.25,18.3359 -5.1,8.3633 -7.77,18.1797 -7.9,29.4844 -0.22,16.0859 4.66,29.1059 14.57,39.0349 9.98,9.953 23.83,14.946 41.59,14.946 14.39,0 25.81,-2.239 34.2,-6.715 8.39,-4.434 14.85,-10.903 19.3,-19.352 4.47,-8.453 6.8,-19.4647 6.99,-33.035 l 0.05,-4.4571 v 0" /><path
         id="path26"
         style="fill:#ed1c24;fill-opacity:1;fill-rule:nonzero;stroke:none"
         d="m 1769.09,181.215 h 38.71 l 1.85,-142.0587 h -38.7 l -1.86,142.0587 v 0" /><path
         id="path28"
         style="fill:#ed1c24;fill-opacity:1;fill-rule:nonzero;stroke:none"
         d="m 1867.55,90.4141 c 0.13,-9.1836 2.03,-15.9766 5.74,-20.3243 3.68,-4.4101 8.26,-6.621 13.77,-6.621 5.59,0 10.11,2.1796 13.6,6.5117 3.55,4.3398 5.22,11.25 5.11,20.8359 -0.14,8.8906 -2.01,15.5506 -5.66,19.9136 -3.65,4.333 -8.16,6.516 -13.45,6.516 -5.64,0 -10.27,-2.211 -13.88,-6.617 -3.59,-4.434 -5.34,-11.1876 -5.23,-20.2149 z m -38.65,-0.0938 c -0.22,15.6757 4.79,28.6487 15.01,38.8007 10.27,10.192 24.17,15.274 41.79,15.274 20.18,0 35.48,-5.981 45.93,-17.926 8.42,-9.617 12.72,-21.492 12.9,-35.5901 0.21,-15.8008 -4.76,-28.7734 -14.88,-38.8867 -10.14,-10.082 -24.28,-15.1563 -42.43,-15.1563 -16.18,0 -29.31,4.211 -39.43,12.6016 -12.38,10.3906 -18.68,24.0234 -18.89,40.8828 v 0" /><path
         id="path30"
         style="fill:#ed1c24;fill-opacity:1;fill-rule:nonzero;stroke:none"
         d="m 2002,90.3203 c 0.1,-8.1367 1.85,-14.1836 5.27,-18.1172 3.38,-3.9414 7.64,-5.9297 12.76,-5.9297 4.49,0 8.23,1.8946 11.22,5.6954 2.99,3.7695 4.42,10.1875 4.29,19.2187 -0.11,8.332 -1.78,14.4535 -4.98,18.3555 -3.21,3.93 -7.09,5.879 -11.64,5.879 -4.96,0 -9.04,-1.977 -12.24,-5.918 -3.25,-3.934 -4.79,-10.3477 -4.68,-19.1837 z M 1964.48,0 l -1.84,142.051 h 36.1 l 0.19,-15.211 c 4.95,6.406 9.45,10.754 13.6,13 5.59,3.031 11.79,4.555 18.58,4.555 13.48,0 23.97,-5.286 31.48,-15.805 7.5,-10.524 11.36,-23.547 11.54,-39.0587 0.25,-17.1055 -3.59,-30.168 -11.51,-39.1954 -7.91,-8.9961 -18,-13.5 -30.23,-13.5 -5.95,0 -11.41,1.0352 -16.34,3.086 -4.89,2.0742 -9.34,5.1601 -13.26,9.2226 L 2003.46,0 h -38.98 v 0" /><path
         id="path32"
         style="fill:#ed1c24;fill-opacity:1;fill-rule:nonzero;stroke:none"
         d="m 2150.82,67.6367 38.28,3.7071 c 1.64,-4.6719 3.9,-8.0079 6.75,-9.9922 2.89,-2.0118 6.68,-3.0078 11.44,-3.0078 5.19,0 9.18,1.1132 11.99,3.4062 2.18,1.6523 3.26,3.7734 3.23,6.2813 -0.05,2.8476 -1.53,5.0351 -4.42,6.582 -2.11,1.0859 -7.68,2.4453 -16.67,4.0625 -13.43,2.4219 -22.78,4.6055 -28.01,6.6562 -5.25,2.0547 -9.69,5.4844 -13.29,10.3125 -3.66,4.8285 -5.51,10.3515 -5.62,16.5745 -0.08,6.773 1.81,12.64 5.59,17.539 3.79,4.922 9.03,8.586 15.78,10.996 6.72,2.422 15.77,3.641 27.16,3.641 11.99,0 20.89,-0.954 26.63,-2.809 5.74,-1.895 10.54,-4.789 14.42,-8.734 3.87,-3.93 7.1,-9.254 9.75,-15.961 l -36.56,-3.707 c -1.01,3.296 -2.59,5.718 -4.85,7.265 -3.06,2.09 -6.72,3.11 -11.03,3.11 -4.35,0 -7.55,-0.793 -9.49,-2.383 -1.98,-1.586 -2.93,-3.496 -2.91,-5.754 0.03,-2.547 1.33,-4.422 3.87,-5.719 2.54,-1.285 8.05,-2.453 16.54,-3.508 12.85,-1.484 22.43,-3.535 28.71,-6.179 6.29,-2.6488 11.14,-6.4222 14.5,-11.348 3.39,-4.8946 5.1,-10.2852 5.19,-16.1719 0.08,-5.957 -1.59,-11.7383 -5.04,-17.3633 -3.4,-5.625 -8.88,-10.0898 -16.4,-13.3984 -7.52,-3.336 -17.8,-4.9922 -30.79,-4.9922 -18.37,0 -31.53,2.6758 -39.39,8.0391 -7.86,5.3593 -13,12.996 -15.36,22.8554 v 0" /><path
         id="path34"
         style="fill:#ed1c24;fill-opacity:1;fill-rule:nonzero;stroke:none"
         d="m 2382.72,39.1563 h -36.03 l -0.23,16.6718 c -5.28,-6.8515 -10.62,-11.7343 -16.05,-14.6211 -5.43,-2.914 -12.15,-4.3711 -20.09,-4.3711 -10.61,0 -18.98,3.2422 -25.12,9.7305 -6.09,6.4844 -9.24,16.5039 -9.43,29.9922 l -0.85,65.4924 h 38.76 l 0.74,-56.5862 c 0.08,-6.4453 1.32,-11.0507 3.69,-13.7656 2.4,-2.7109 5.68,-4.0625 9.92,-4.0625 4.64,0 8.37,1.8125 11.25,5.4297 2.89,3.6211 4.26,10.1133 4.16,19.4688 l -0.67,49.5158 h 38.6 l 1.35,-102.8947 v 0" /><path
         id="path36"
         style="fill:#ed1c24;fill-opacity:1;fill-rule:nonzero;stroke:none"
         d="m 2480.69,79.3789 36.72,-4.2617 c -1.9,-7.8125 -5.13,-14.5977 -9.67,-20.3164 -4.55,-5.7188 -10.37,-10.1524 -17.52,-13.332 -7.09,-3.1329 -16.2,-4.7266 -27.26,-4.7266 -10.69,0 -19.59,1.0234 -26.71,3.0469 -7.15,2.0507 -13.32,5.3242 -18.48,9.8906 -5.21,4.5625 -9.29,9.8867 -12.25,16.0391 -3,6.1132 -4.56,14.2578 -4.69,24.4101 -0.14,10.5741 1.48,19.4141 4.95,26.4571 2.54,5.164 6.01,9.797 10.45,13.883 4.42,4.101 8.98,7.187 13.72,9.176 7.46,3.164 17.1,4.75 28.83,4.75 16.43,0 29,-3.004 37.71,-9.028 8.7,-5.98 14.89,-14.785 18.51,-26.351 l -36.24,-4.938 c -1.19,4.402 -3.31,7.715 -6.35,9.926 -3.02,2.25 -7.07,3.336 -12.13,3.336 -6.37,0 -11.54,-2.344 -15.43,-7.004 -3.86,-4.695 -5.75,-11.7774 -5.64,-21.2696 0.11,-8.4687 2.18,-14.8906 6.14,-19.2851 3.98,-4.3946 9.01,-6.5782 15.09,-6.5782 5.03,0 9.27,1.3242 12.69,3.9688 3.38,2.6484 5.92,6.7148 7.56,12.207 v 0" /><path
         id="path38"
         style="fill:#ed1c24;fill-opacity:1;fill-rule:nonzero;stroke:none"
         d="m 2610.2,79.3789 36.71,-4.2617 c -1.9,-7.8125 -5.13,-14.5977 -9.66,-20.3164 -4.55,-5.7188 -10.37,-10.1524 -17.52,-13.332 -7.12,-3.1329 -16.23,-4.7266 -27.3,-4.7266 -10.66,0 -19.59,1.0234 -26.68,3.0469 -7.15,2.0507 -13.32,5.3242 -18.47,9.8906 -5.22,4.5625 -9.3,9.8867 -12.27,16.0391 -2.99,6.1132 -4.55,14.2578 -4.68,24.4101 -0.13,10.5741 1.48,19.4141 4.95,26.4571 2.54,5.164 6.01,9.797 10.43,13.883 4.45,4.101 9,7.187 13.73,9.176 7.47,3.164 17.11,4.75 28.83,4.75 16.45,0 29.02,-3.004 37.73,-9.028 8.68,-5.98 14.88,-14.785 18.5,-26.351 l -36.24,-4.938 c -1.19,4.402 -3.31,7.715 -6.35,9.926 -3.04,2.25 -7.07,3.336 -12.15,3.336 -6.35,0 -11.52,-2.344 -15.4,-7.004 -3.87,-4.695 -5.78,-11.7774 -5.65,-21.2696 0.11,-8.4687 2.18,-14.8906 6.14,-19.2851 3.98,-4.3946 9.01,-6.5782 15.07,-6.5782 5.05,0 9.29,1.3242 12.71,3.9688 3.39,2.6484 5.92,6.7148 7.57,12.207 v 0" /><path
         id="path40"
         style="fill:#ed1c24;fill-opacity:1;fill-rule:nonzero;stroke:none"
         d="m 2736.87,99.707 c -0.88,7.652 -2.94,13.106 -6.23,16.387 -3.31,3.297 -7.59,4.953 -12.92,4.953 -6.14,0 -10.98,-2.516 -14.6,-7.469 -2.31,-3.109 -3.74,-7.715 -4.27,-13.871 h 38.02 z m 39.47,-18.8711 h -77.33 c 0.77,-6.3554 2.51,-11.0546 5.19,-14.164 3.78,-4.461 8.71,-6.6875 14.69,-6.6875 3.79,0 7.39,0.9687 10.78,2.914 2.09,1.2344 4.29,3.375 6.64,6.4883 l 38.07,-3.5781 c -5.7,-10.3477 -12.57,-17.7617 -20.76,-22.25 -8.15,-4.4727 -19.91,-6.7227 -35.26,-6.7227 -13.34,0 -23.85,1.918 -31.58,5.7579 -7.68,3.8359 -14.11,9.957 -19.22,18.3359 -5.14,8.3633 -7.78,18.1797 -7.94,29.4844 -0.22,16.0859 4.69,29.1059 14.61,39.0349 9.96,9.953 23.8,14.946 41.59,14.946 14.4,0 25.81,-2.239 34.17,-6.715 8.42,-4.434 14.88,-10.903 19.33,-19.352 4.47,-8.453 6.77,-19.4647 6.96,-33.035 l 0.06,-4.4571 v 0" /><path
         id="path42"
         style="fill:#ed1c24;fill-opacity:1;fill-rule:nonzero;stroke:none"
         d="m 2787.43,67.6367 38.24,3.7071 c 1.65,-4.6719 3.9,-8.0079 6.78,-9.9922 2.86,-2.0118 6.68,-3.0078 11.42,-3.0078 5.18,0 9.18,1.1132 12.02,3.4062 2.17,1.6523 3.22,3.7734 3.2,6.2813 -0.03,2.8476 -1.51,5.0351 -4.42,6.582 -2.12,1.0859 -7.68,2.4453 -16.65,4.0625 -13.43,2.4219 -22.78,4.6055 -28.01,6.6562 -5.24,2.0547 -9.69,5.4844 -13.32,10.3125 -3.65,4.8285 -5.51,10.3515 -5.59,16.5745 -0.07,6.773 1.78,12.64 5.57,17.539 3.78,4.922 9.05,8.586 15.77,10.996 6.73,2.422 15.78,3.641 27.16,3.641 12.02,0 20.89,-0.954 26.63,-2.809 5.77,-1.895 10.57,-4.789 14.43,-8.734 3.86,-3.93 7.12,-9.254 9.77,-15.961 l -36.56,-3.707 c -1.01,3.296 -2.59,5.718 -4.85,7.265 -3.06,2.09 -6.74,3.11 -11.06,3.11 -4.32,0 -7.52,-0.793 -9.47,-2.383 -1.99,-1.586 -2.91,-3.496 -2.89,-5.754 0.03,-2.547 1.32,-4.422 3.86,-5.719 2.54,-1.285 8.05,-2.453 16.55,-3.508 12.81,-1.484 22.4,-3.535 28.67,-6.179 6.33,-2.6488 11.17,-6.4222 14.53,-11.348 3.39,-4.8946 5.12,-10.2852 5.19,-16.1719 0.08,-5.957 -1.59,-11.7383 -5.05,-17.3633 -3.42,-5.625 -8.9,-10.0898 -16.39,-13.3984 -7.52,-3.336 -17.79,-4.9922 -30.81,-4.9922 -18.38,0 -31.51,2.6758 -39.4,8.0391 -7.86,5.3593 -12.96,12.996 -15.32,22.8554 v 0" /><path
         id="path44"
         style="fill:#ed1c24;fill-opacity:1;fill-rule:nonzero;stroke:none"
         d="m 2906.03,67.6367 38.25,3.7071 c 1.64,-4.6719 3.88,-8.0079 6.77,-9.9922 2.86,-2.0118 6.67,-3.0078 11.41,-3.0078 5.19,0 9.19,1.1132 12.02,3.4062 2.17,1.6523 3.23,3.7734 3.21,6.2813 -0.03,2.8476 -1.52,5.0351 -4.43,6.582 -2.12,1.0859 -7.67,2.4453 -16.65,4.0625 -13.42,2.4219 -22.76,4.6055 -28.01,6.6562 -5.24,2.0547 -9.68,5.4844 -13.32,10.3125 -3.65,4.8285 -5.49,10.3515 -5.58,16.5745 -0.08,6.773 1.77,12.64 5.56,17.539 3.78,4.922 9.06,8.586 15.78,10.996 6.72,2.422 15.78,3.641 27.15,3.641 12.02,0 20.89,-0.954 26.64,-2.809 5.77,-1.895 10.56,-4.789 14.43,-8.734 3.87,-3.93 7.12,-9.254 9.76,-15.961 l -36.55,-3.707 c -1.01,3.296 -2.6,5.718 -4.84,7.265 -3.08,2.09 -6.76,3.11 -11.08,3.11 -4.3,0 -7.51,-0.793 -9.47,-2.383 -1.98,-1.586 -2.91,-3.496 -2.88,-5.754 0.02,-2.547 1.32,-4.422 3.86,-5.719 2.55,-1.285 8.04,-2.453 16.54,-3.508 12.84,-1.484 22.4,-3.535 28.67,-6.179 6.33,-2.6488 11.17,-6.4222 14.53,-11.348 3.39,-4.8946 5.12,-10.2852 5.2,-16.1719 0.08,-5.957 -1.59,-11.7383 -5.06,-17.3633 -3.42,-5.625 -8.9,-10.0898 -16.39,-13.3984 -7.52,-3.336 -17.79,-4.9922 -30.81,-4.9922 -18.37,0 -31.5,2.6758 -39.39,8.0391 -7.86,5.3593 -12.97,12.996 -15.32,22.8554 v 0" /><path
         id="path46"
         style="fill:#ed1c24;fill-opacity:1;fill-rule:nonzero;stroke:none"
         d="m 582.996,203.824 c -8.594,0.301 -66.519,8.805 -93.894,8.805 -27.403,0 -62.95,-2.926 -71.551,-4.211 -8.574,-1.391 -12.844,2.965 -8.93,9.527 4.008,6.59 28.293,48.114 32.91,76.504 4.602,28.356 4.668,47.364 3.059,63.641 -1.004,10.215 -0.117,32.801 9.914,38.57 5.137,2.965 10.215,2.621 16.766,-5.957 6.628,-8.562 40.41,-58.715 54.414,-71.234 5.91,-5.27 9.453,-9.309 17.839,0 14.907,16.57 46.489,84.851 60.969,113.801 5.098,10.097 8.289,16.203 10.696,20.597 l 3.093,-4.605 4.766,-10.907 4.519,-11.015 3.528,-11.399 1.484,-11.921 2.91,-11.543 1.992,-11.754 3.145,-11.621 0.332,-12.016 1.348,-11.914 1.101,-12.102 -0.301,-9.023 0.489,-12.863 -2.199,-12.59 -0.372,-12.641 -2.539,-14.199 -1.441,-14.231 -3.215,-13.886 -2.922,-12.098 -4.07,-13.555 -5.691,-11.011 -0.977,-1.813 c -11.965,2.028 -27.824,-1.652 -37.172,-1.336 z m -225,280.567 c -2.051,-0.536 -4.715,3.07 -5.945,7.937 -1.27,4.992 -0.613,9.375 1.433,9.891 2.063,0.531 4.739,-3.035 5.969,-7.981 1.262,-4.925 0.586,-9.32 -1.457,-9.847 z m 249.199,-328.446 7.063,9.559 3.308,5.625 c 4.731,-1.68 9.219,-3.242 13.11,-5.016 5.371,-2.398 12.515,-20.843 28.308,-36.527 3.868,-3.867 12.774,-10.422 22.461,-16.695 l 39.766,-23.4652 c 9.18,-6.8828 17.629,-15.3672 21.894,-20.0156 4.485,-4.8672 6.907,-11.8321 2.958,-15.793 -3.985,-3.9688 -9.317,-12.0938 7.816,-12.0938 17.144,0 95.957,-0.664 105.191,-0.664 9.223,0 15.481,6.6445 -0.652,9.2304 -16.184,2.629 -57.41,9.25 -73.516,15.4961 -16.172,6.2735 -44.211,19.1563 -58.371,37.9731 -14.246,18.769 -26.394,33.914 -37.273,42.82 -10.879,8.91 -30.195,19.191 -39.063,31.742 -6.257,8.75 -10.781,16.317 -17.187,21.348 l 2.363,8.379 5.43,10.644 2.793,11.551 5.058,10.918 3.059,11.48 1.355,11.938 4.661,11.234 -0.754,12.352 1.308,11.875 1.824,11.859 3.079,12.071 -0.567,9.214 -1.179,12.743 0.632,12.789 -1.797,12.496 -1.933,12.386 -3.172,13.883 -4.641,13.407 -2.375,13.871 -3.964,13.449 -5.536,12.734 -6.179,12.418 -6.008,12.348 -0.254,0.555 c 2.422,7.492 3.906,15.988 2.344,19.871 -2.285,5.925 -3.282,3.968 -5.586,4.269 -2.344,0.332 -2.989,5.945 -2.344,8.543 0.703,2.656 -5.254,8.957 -10.84,-0.308 -0.156,-0.25 -0.273,-0.512 -0.476,-0.743 l -2.278,4.067 -6.347,10.254 -8.399,10.761 -8.965,7.969 -6.14,10.563 -9.375,7.504 -9.192,10.101 -10.715,5.742 -8.843,7.809 -9.426,7.18 -9.824,6.375 -10,6.25 -8.496,8.906 -10.86,4.914 -10.273,6.004 -11.192,4.066 -10.832,4.938 -11.699,2.593 -11.015,4.618 -11.93,1.418 -11.289,4.089 -11.692,2.239 -11.964,1.07 -11.93,1.125 -11.77,3.746 -12.187,-0.332 -9.649,-1.246 -12.707,1.207 -12.5,-2.156 -12.437,-1.063 -12.68,0.496 -11.941,-4.015 -12.078,-2.617 -12.329,-1.602 -11.609,-4.254 -11.738,-3.676 -11.746,-3.785 -9.883,-7.863 -11.164,-4.754 -10.457,-6.18 -11.281,-4.734 -10.586,-6.067 -7.547,-7.226 10.906,8.562 11.992,6.293 13.074,4.02 12.336,5.426 12.442,5.269 12.234,6.367 11.379,3.504 12.129,0.559 11.523,3.309 11.746,2.57 12.153,-0.61 11.746,3.891 12.207,-1.254 10.586,0.82 12.812,1.704 12.442,-4.313 12.527,-0.516 12.641,0.157 13.886,-3.043 13.258,-5.246 14.387,-0.657 12.871,-5.679 12.559,-6.012 12.519,-5.875 13.867,-2.961 11.387,-8.008 10.676,-5.547 11.641,-7.281 8.601,-8.512 9.348,-7.32 11.719,-7.16 8.582,-8.258 7.878,-8.961 9.758,-7.125 7.051,-9.566 7.871,-8.934 6.66,-11.89 6.692,-9.711 8.758,-8.418 1.496,-3.547 c -1.496,-2.942 -2.739,-5.457 -3.403,-6.805 -1.961,-3.945 -2.312,-14.453 0.664,-19.086 2.961,-4.605 6.614,-7.906 2.961,-16.465 -3.625,-8.632 -41.562,-78.863 -51.726,-90.058 -10.266,-11.203 -15.051,-11.028 -20.469,-3.946 -19.16,25.032 -36.699,50.696 -45.441,64.75 -5.645,9.149 -9.344,27.504 -12.61,30.813 -7.652,7.969 -13.113,8.949 -19.48,5.031 -9.051,-5.691 -16.414,-12.445 -24.7,-16.508 -5.261,-2.605 -12.07,-5.222 -16.492,7.227 -3.879,10.926 -11.406,44.105 -1.465,52.113 10.469,8.446 16.321,14.879 10.957,27.293 -5.632,13.211 -39.804,13.156 -66.96,4.406 0.664,-1.242 1.343,-2.753 1.785,-4.484 1.269,-4.922 0.617,-9.309 -1.465,-9.824 -2,-0.528 -4.695,3.058 -5.957,7.941 -0.371,1.535 -0.52,2.91 -0.567,4.211 -2.714,-1.031 -5.351,-2.144 -7.8,-3.336 -15.168,-7.625 -21.731,-30.945 -13.442,-45.703 8.305,-14.785 25.821,-21.453 40.395,-12.801 7.527,4.45 13.34,16.176 17.176,6.567 8.203,-20.727 -0.047,-54.809 -22.579,-53.317 -8.437,0.559 -28.418,3.18 -46.296,-18.914 -9.922,-12.265 -35.676,-47.32 -52.012,-71.847 -14.426,-21.641 -18.293,-25.079 -31.82,-15.496 -13.524,9.554 -51.5,46.218 -61.649,69.871 -2.598,6.129 -4.211,10.894 -1.855,18.242 1.367,-0.942 1.789,-1.84 4.074,-1.629 6.875,8.086 5.762,16.93 15.183,22.129 1.426,1.933 1.114,4.664 -0.937,6.433 l 34.043,28.063 38.75,30.391 40.488,28.667 39.883,31.875 35.383,30.516 -1.301,-15.601 30.461,42.3 -11.32,-4.379 -36.543,-15.273 15.644,-3.629 -40.887,-31.875 -42.277,-29.805 -40,-33.144 -39.308,-31.922 -29.493,-23.008 c 0.032,0.371 0.102,0.848 0.239,1.469 1.961,9.863 2.3,12.496 -1.985,15.184 -4.289,2.566 -9.66,0.367 -18.215,-11.278 -4.968,-6.75 -7.793,-13.933 -6.851,-25.32 L 125.098,390.625 86.1328,359.941 46.9336,327.035 14.8516,301.742 c -3.8672,3.668 -8.7891,6.09 -14.214881,6.633 L 0,302.152 c 4.84375,-0.504 9.23828,-2.898 12.3398,-6.722 3.0938,-3.813 4.5235,-8.617 3.9922,-13.512 l 6.2266,-0.648 c 0.6055,5.687 -0.8789,11.234 -3.9727,15.972 l 35.6602,29.692 40.5781,31.91 40.8908,31.98 14.668,10.469 c 1.082,-6.035 2.976,-13.066 5.933,-21.535 4.653,-13.449 33.442,-70.442 69.004,-92.586 22.168,-13.77 21.438,-6.219 24.368,-1.313 2.988,4.926 40.683,54.762 56.738,68.246 26.387,22.129 37.492,27.399 48.594,25.653 12.48,-1.961 22.785,-6.406 24.621,-22.672 2.007,-18.059 4.285,-46.805 -0.364,-74.215 -4.558,-27.336 -15.808,-45.812 -19.726,-52.062 -3.977,-6.274 -9.602,-14.504 -19.817,-11.196 -12.754,4.063 -33.796,8.196 -46.179,9.571 -16.27,9.726 -68.274,35.421 -90.696,42.832 -15.359,5.086 -22.703,5.269 -26.343,6.593 -3.625,1.309 -16.821,9.25 -20.453,-3.613 -3.629,-12.883 1.64,-21.394 7.257,-29.625 5.575,-8.285 5.703,-23.414 9.344,-38.609 6.992,-29.317 22.231,-53.778 49.024,-93.024 17.929,-26.2732 22.089,-32.0583 21.117,-37.2966 -1.008,-5.3476 -14.629,-18.1484 -30.032,-20.7578 -16.093,-2.6602 -42.265,-3.8359 -46.855,-7.2383 -3.164,-2.3281 11.262,-4.1601 19.148,-4.1601 7.922,0 72.903,-0.1133 84.106,-0.1133 h 1.16 c 6.809,0 10.227,1.8008 11.523,5.7695 1.243,3.8242 -9.89,16.8359 -10.515,17.5391 -14.797,18.7422 -37.641,53.9215 -43.059,81.1875 -6.593,33.367 -13.426,49.398 -24.636,61.59 -11.235,12.226 -14.512,18.926 -11.301,27.777 1.367,3.789 7.746,-0.191 10.715,-3.82 2.964,-3.645 47.476,-45.703 91.48,-63.113 8.996,-3.52 17.649,-6.551 26.254,-9.305 4.871,-10.242 15.164,-17.402 27.234,-17.402 7.176,0 13.621,2.621 18.809,6.75 1.133,-0.122 2.219,-0.36 3.269,-0.493 5.098,-3.836 11.348,-6.257 18.215,-6.257 5.774,0 11.016,1.679 15.598,4.457 5.738,0.07 11.59,0.308 17.586,0.812 51.758,4.141 94.601,11.723 121.75,18.5 26.062,6.516 46.387,11.383 61.656,7.32 l -1.394,-2.609 -6.172,-12.441 -5.242,-11.086 -6.829,-10.145 -8.449,-8.75 -11.785,-17.812 -5.476,-5.508 -8.379,-6.699 -7.231,-5.3598 -6.543,-9.2383 -2.613,-2.3398 -12.141,-8.3789 -8.894,-6.9375 -10.285,-8.3125 -6.075,-3.1797 -9.757,-7.3164 -11.864,-3.6797 -9.648,-6.8516 13.203,4.7735 12.488,8.0078 19.973,9.9023 4.109,5.2539 11.106,4.4102 6.035,4.8984 8.918,7.5977 5.215,6.6836 11.465,8.7891 12.168,10.7027 2.996,3.032 11.718,12.828 8.059,10.867 7,9.609 6.609,9.75 z M 346.348,530.434 c -1.414,-0.379 -2.102,-2.629 -2.032,-5.649 2.012,0.82 4.082,1.531 6.204,2.156 -1.321,2.344 -2.864,3.825 -4.172,3.493 v 0" /><path
         id="path48"
         style="fill:#ed1c24;fill-opacity:1;fill-rule:nonzero;stroke:none"
         d="m 1966.79,392.188 c -17.23,0 -30.23,13.687 -30.23,30.863 0,17 13,30.918 29.76,30.918 h 0.23 c 16.95,0 29.7,-13.918 29.7,-31.156 0,-16.938 -12.75,-30.84 -29.46,-30.625 z m 0,69.593 h -0.24 c -22.18,0 -39.86,-17.051 -39.86,-38.73 0,-21.625 17.68,-38.863 39.86,-38.863 22.16,0 39.6,17.238 39.6,38.863 0,21.679 -17.44,38.73 -39.36,38.73 z m -1.88,-37.035 h -4.27 v 11.094 c 0.96,0.238 2.6,0.449 4.96,0.449 5.64,0 8.26,-2.359 8.26,-5.902 0,-4.024 -4.03,-5.641 -8.95,-5.641 z m 10.59,-2.832 v 0.481 c 4.47,1.421 8,4.445 8,9.168 0,3.773 -1.64,6.578 -4.01,8.246 -2.59,1.918 -5.9,3.058 -13.17,3.058 -6.41,0 -11.34,-0.676 -14.88,-1.14 v -38.715 h 8.94 v 15.355 h 4.29 c 4.93,0 7.28,-1.851 8,-5.879 1.19,-4.75 1.88,-8.047 3.07,-9.476 h 9.45 c -0.77,1.429 -1.69,3.59 -2.86,9.476 -1.17,5.164 -3.04,8.235 -6.83,9.426 z m -167.04,-10.137 h -1.69 l -1.67,30.813 h -44.34 c 1.21,-14.602 1.64,-30.207 1.64,-52.086 V 281 h 50.99 v 83.613 c 0,4.672 0.84,8.961 1.66,12.645 4.61,18.234 21.21,30.84 45.64,30.84 6.19,0 10.77,-0.692 14.91,-1.356 v 38.485 c -4.14,0.695 -7.03,1.003 -12.03,1.003 -21.54,0 -45.21,-11.613 -55.11,-34.453 z m -202.04,-32.906 c 2.06,16.621 15.32,39.496 46.8,39.496 34.03,0 42.31,-24.554 41.92,-39.496 h -88.72 z m 49.74,67.359 c -64.66,0 -98.7,-42.105 -98.7,-86.921 0,-49.438 38.55,-81.93 104.1,-81.93 29.02,0 53.06,4.629 70.5,10.254 l -7.49,28.222 c -15.35,-4.648 -32.29,-7.281 -55.97,-7.281 -32.35,0 -60.94,12.586 -62.18,41.785 h 135.17 c 0.79,3.629 1.67,9.637 1.67,17.262 0,35.484 -21.18,78.609 -87.1,78.609 z m -186.31,0 c -12.84,0 -24.84,-2.66 -34.83,-7.281 -10.34,-4.332 -19.05,-10.961 -25.27,-18.582 h -0.84 v 96.211 h -51.4 V 281 h 51.4 v 96.602 c 0,4.578 0.42,8.945 2.09,12.226 5.36,12.274 19.48,22.926 39.38,22.926 28.19,0 38.98,-17.602 38.98,-41.191 V 281 h 51 v 95.195 c 0,51.793 -36.1,70.035 -70.51,70.035 z m -173.5,-31.835 c 18.26,0 30.25,-3.336 38.56,-6.297 l 9.16,30.519 c -11.65,4.317 -30.7,7.613 -49.37,7.613 -70.9,0 -112.38,-37.816 -112.38,-86.234 0,-50.125 41.04,-82.617 104.07,-82.617 25.31,0 46.48,4.629 57.24,8.613 l -7.05,30.196 c -9.98,-3.352 -22.41,-6.317 -40.23,-6.317 -34.83,0 -61.79,18.942 -61.79,52.109 -0.43,29.489 22.79,52.415 61.79,52.415 z m -111.36,30.832 c -4.12,0.695 -7.03,1.003 -12.02,1.003 -21.53,0 -45.18,-11.613 -55.16,-34.453 h -1.62 l -1.69,30.813 h -44.36 c 1.26,-14.602 1.63,-30.207 1.63,-52.086 V 281 h 51.01 v 83.613 c 0,4.672 0.86,8.961 1.66,12.645 4.58,18.234 21.18,30.84 45.63,30.84 6.24,0 10.8,-0.692 14.92,-1.356 v 38.485 z M 992.734,337.773 c 0,-2.66 -0.449,-5.996 -1.679,-8.96 -4.602,-11.649 -19.512,-22.25 -39.817,-22.25 -16.172,0 -29.019,7.265 -29.019,23.218 0,24.551 34.414,30.864 70.515,30.215 v -22.223 z m 49.756,40.434 c 0,35.211 -18.66,68.023 -83.388,68.023 -31.946,0 -58.055,-6.949 -72.969,-14.257 l 9.961,-26.524 c 13.672,6.934 34.402,11.938 54.289,11.938 35.68,0 41.094,-17.578 41.094,-28.215 v -2.625 c -74.653,0.344 -119.868,-20.223 -119.868,-61.043 0,-24.582 22.805,-48.125 63.457,-48.125 26.118,0 47.247,8.961 59.692,21.531 h 1.258 L 999.355,281 h 46.045 c -2.11,9.98 -2.91,24.227 -2.91,38.863 v 58.344 0" /></g></g></svg>